<mxfile host="Electron" agent="Mozilla/5.0 (Windows NT 10.0; Win64; x64) AppleWebKit/537.36 (KHTML, like Gecko) draw.io/24.7.5 Chrome/126.0.6478.183 Electron/31.3.0 Safari/537.36" version="24.7.5">
  <diagram name="Page-1" id="BNt6ZxT1kCDXzdpl6TtB">
    <mxGraphModel dx="600" dy="355" grid="1" gridSize="10" guides="1" tooltips="1" connect="1" arrows="1" fold="1" page="1" pageScale="1" pageWidth="1169" pageHeight="827" math="0" shadow="0">
      <root>
        <mxCell id="0" />
        <mxCell id="1" parent="0" />
        <mxCell id="nJq6ZUeE19HBMRDAFKTM-26" value="" style="rounded=0;whiteSpace=wrap;html=1;fontStyle=1;strokeWidth=2;" vertex="1" parent="1">
          <mxGeometry x="320" y="180" width="200" height="240" as="geometry" />
        </mxCell>
        <mxCell id="nJq6ZUeE19HBMRDAFKTM-27" value="&amp;nbsp; &amp;nbsp;s_axi_wr_en" style="endArrow=classic;html=1;rounded=0;labelBackgroundColor=none;fontStyle=1;strokeWidth=2;" edge="1" parent="1">
          <mxGeometry x="1" y="30" width="50" height="50" relative="1" as="geometry">
            <mxPoint x="240" y="240" as="sourcePoint" />
            <mxPoint x="320" y="240" as="targetPoint" />
            <mxPoint x="30" y="30" as="offset" />
          </mxGeometry>
        </mxCell>
        <mxCell id="nJq6ZUeE19HBMRDAFKTM-28" value="&amp;nbsp; &amp;nbsp; &amp;nbsp; &amp;nbsp; s_axi_addr" style="endArrow=classic;html=1;rounded=0;labelBackgroundColor=none;fontStyle=1;strokeWidth=2;" edge="1" parent="1">
          <mxGeometry x="1" y="20" width="50" height="50" relative="1" as="geometry">
            <mxPoint x="240" y="280" as="sourcePoint" />
            <mxPoint x="320" y="280" as="targetPoint" />
            <mxPoint x="20" y="20" as="offset" />
          </mxGeometry>
        </mxCell>
        <mxCell id="nJq6ZUeE19HBMRDAFKTM-29" value="&lt;span style=&quot;&quot;&gt;&lt;font style=&quot;font-size: 24px;&quot;&gt;IMEM&lt;/font&gt;&lt;/span&gt;" style="text;html=1;align=center;verticalAlign=middle;whiteSpace=wrap;rounded=0;fontStyle=1;strokeWidth=2;" vertex="1" parent="1">
          <mxGeometry x="320" y="180" width="200" height="40" as="geometry" />
        </mxCell>
        <mxCell id="nJq6ZUeE19HBMRDAFKTM-32" value="inst_o" style="endArrow=classic;html=1;rounded=0;fontStyle=1;strokeWidth=2;" edge="1" parent="1">
          <mxGeometry x="-1" y="-20" width="50" height="50" relative="1" as="geometry">
            <mxPoint x="520" y="289.43" as="sourcePoint" />
            <mxPoint x="600" y="289.43" as="targetPoint" />
            <mxPoint x="-20" y="-20" as="offset" />
          </mxGeometry>
        </mxCell>
        <mxCell id="nJq6ZUeE19HBMRDAFKTM-33" value="&amp;nbsp; &amp;nbsp; &amp;nbsp; &amp;nbsp; s_axi_data" style="endArrow=classic;html=1;rounded=0;labelBackgroundColor=none;fontStyle=1;strokeWidth=2;" edge="1" parent="1">
          <mxGeometry x="1" y="20" width="50" height="50" relative="1" as="geometry">
            <mxPoint x="240" y="320" as="sourcePoint" />
            <mxPoint x="320" y="320" as="targetPoint" />
            <mxPoint x="20" y="20" as="offset" />
          </mxGeometry>
        </mxCell>
        <mxCell id="nJq6ZUeE19HBMRDAFKTM-34" value="addr_i" style="endArrow=classic;html=1;rounded=0;labelBackgroundColor=none;fontStyle=1;strokeWidth=2;" edge="1" parent="1">
          <mxGeometry x="1" y="20" width="50" height="50" relative="1" as="geometry">
            <mxPoint x="240" y="360" as="sourcePoint" />
            <mxPoint x="320" y="360" as="targetPoint" />
            <mxPoint x="20" y="20" as="offset" />
          </mxGeometry>
        </mxCell>
        <mxCell id="nJq6ZUeE19HBMRDAFKTM-36" value="32" style="text;html=1;align=center;verticalAlign=middle;whiteSpace=wrap;rounded=0;fontStyle=1;strokeWidth=2;" vertex="1" parent="1">
          <mxGeometry x="540" y="270" width="40" height="20" as="geometry" />
        </mxCell>
        <mxCell id="nJq6ZUeE19HBMRDAFKTM-37" value="32" style="text;html=1;align=center;verticalAlign=middle;whiteSpace=wrap;rounded=0;fontStyle=1;strokeWidth=2;" vertex="1" parent="1">
          <mxGeometry x="260" y="260" width="40" height="20" as="geometry" />
        </mxCell>
        <mxCell id="nJq6ZUeE19HBMRDAFKTM-38" value="32" style="text;html=1;align=center;verticalAlign=middle;whiteSpace=wrap;rounded=0;fontStyle=1;strokeWidth=2;" vertex="1" parent="1">
          <mxGeometry x="260" y="300" width="40" height="20" as="geometry" />
        </mxCell>
        <mxCell id="nJq6ZUeE19HBMRDAFKTM-39" value="32" style="text;html=1;align=center;verticalAlign=middle;whiteSpace=wrap;rounded=0;fontStyle=1;strokeWidth=2;" vertex="1" parent="1">
          <mxGeometry x="260" y="340" width="40" height="20" as="geometry" />
        </mxCell>
        <mxCell id="nJq6ZUeE19HBMRDAFKTM-40" value="" style="triangle;whiteSpace=wrap;html=1;fontStyle=1;strokeWidth=2;" vertex="1" parent="1">
          <mxGeometry x="320" y="380" width="20" height="34" as="geometry" />
        </mxCell>
      </root>
    </mxGraphModel>
  </diagram>
</mxfile>
